# xmcd CD database file
#
# Track frame offsets:
#	150
#	60411
#	139119
#	215096
#
# Disc length: 3661 seconds
#
# Revision: 1
# Processed by: cddbd v1.5.2PL0 Copyright (c) Steve Scherf et al.
# Submitted via: CDex 1.70beta2
#
DISCID=380e4b04
DTITLE=Dr. Jeffrey Thompson and Silvia Nakkach - Unwind
DYEAR=2007
DGENRE=New Age
TTITLE0=Invocation
TTITLE1=Refuge
TTITLE2=Transformation
TTITLE3=Dedication
EXTD=Produced by Gaiam the relaxation company YEAR: 2007
EXTT0=
EXTT1=
EXTT2=
EXTT3=
PLAYORDER=
